# xmcd
#
# Track frame offsets:
#	150
#	11366
#	22851
#	37670
#	48125
#	61755
#	74121
#	87306
#	100951
#	113701
#	125716
#	137618
#	150410
#	160903
#	174814
#	187869
#	198888
#	210524
#	224890
#	237478
#	251129
#
# Disc length: 3521 seconds
#
# Revision: 1
# Processed by: cddbd v1.5.2PL0 Copyright (c) Steve Scherf et al.
# Submitted via: audiograbber 1.83.01
#
DISCID=160dbf15
DTITLE=James,Elmore - Dust my broom 1951-1961 [CD 4)
DYEAR=2017
DGENRE=Blues
TTITLE0=Mr. Down Child - Williamson, Sonny Boy II
TTITLE1=Too close together - Williamson, Sonny Boy II
TTITLE2=She brought life back to the dead - Williamson, Sonny Boy II
TTITLE3=Everybody's fishing - Love, Willie
TTITLE4=My own boogie - Love, Willie
TTITLE5=Round house boogie - Bep Brown Orchestra
TTITLE6=Kicking the blues around (Flaming Blues) - Bep Brown Orchestra
TTITLE7=Dirty by the dozen (Sweet little woman) - Little Johnny Jones
TTITLE8=I may be wrong - Little Johnny Jones
TTITLE9=Doin' the best I can - Little Johnny Jones
TTITLE10=Hoy hoy - Little Johnny Jones
TTITLE11=Cut that out - Wells, Junior
TTITLE12=Eagle rock - Wells, Junior
TTITLE13=Hoodoo man - Wells, Junior
TTITLE14=Junior's wail - Wells, Junior
TTITLE15=Tomorrow night - Wells, Junior
TTITLE16=Sax-ony boogie - Brown, J. T.
TTITLE17=Dumb woman blues - Brown, J. T.
TTITLE18=TV Mama - Turner, Big Joe
TTITLE19=Oke-she-moke-she-pop - Turner, Big Joe
TTITLE20=Ti-ri-lee - Turner, Big Joe
EXTD=
EXTT0=
EXTT1=
EXTT2=
EXTT3=
EXTT4=
EXTT5=
EXTT6=
EXTT7=
EXTT8=
EXTT9=
EXTT10=
EXTT11=
EXTT12=
EXTT13=
EXTT14=
EXTT15=
EXTT16=
EXTT17=
EXTT18=
EXTT19=
EXTT20=
PLAYORDER=
